<svg t="1721215499030" class="icon" viewBox="0 0 1024 1024" version="1.1" xmlns="http://www.w3.org/2000/svg" p-id="29147" width="16" height="16"><path d="M455.2192 727.7568c0-23.2448 3.328-46.336 9.8816-68.608H274.3296a28.5696 28.5696 0 0 1 0-57.1904h215.9616c14.08-23.296 32-44.032 52.992-61.44H274.5856a28.5696 28.5696 0 0 1 0-57.1392h456.448a28.16 28.16 0 0 1 18.176 6.656 242.8416 242.8416 0 0 1 122.2656 67.4304v-305.152c0-37.888-30.72-68.608-68.608-68.608h-184.576C599.552 133.632 555.7248 102.4 499.5072 102.4c-50.0736 0-100.096 31.232-112.64 81.3056H202.24c-37.888 0-68.608 30.72-68.608 68.608v600.576c0 37.9392 30.72 68.608 68.608 68.608h349.4912a242.5344 242.5344 0 0 1-96.512-193.7408zM274.3296 364.8h456.448a28.5696 28.5696 0 0 1 0 57.1904H274.3296a28.5696 28.5696 0 1 1 0-57.1904z" fill="#afb1b3" p-id="29148"></path><path d="M722.7904 720.896h-53.248a12.544 12.544 0 0 0-13.312 12.1344 13.1584 13.1584 0 0 0 13.9264 11.4688h53.2992a12.544 12.544 0 0 0 13.312-12.1344 13.2096 13.2096 0 0 0-13.9776-11.4688z" fill="#afb1b3" p-id="29149"></path><path d="M696.4224 533.8624a194.816 194.816 0 0 1 193.8944 193.8944 193.8432 193.8432 0 1 1-193.8944-193.8944zM691.2 624.64c-11.8784 0-23.3984 2.048-34.048 5.6832a20.3264 20.3264 0 0 1-34.304 19.8144 104.2432 104.2432 0 0 0-34.048 59.0336 20.3264 20.3264 0 0 1 0 39.5776c4.5056 23.3984 16.7936 44.032 34.0992 59.0336a20.3264 20.3264 0 0 1 34.2528 19.8144 104.1408 104.1408 0 0 0 68.096 0 20.3264 20.3264 0 0 1 34.304-19.8144c17.2544-15.0528 29.5424-35.6352 34.048-59.0336a20.3264 20.3264 0 0 1 0-39.5776 104.2432 104.2432 0 0 0-34.0992-59.0336 20.3264 20.3264 0 0 1-34.2528-19.8144 104.8576 104.8576 0 0 0-34.048-5.6832z m0 59.5968a44.6976 44.6976 0 1 1 0 89.3952 44.6976 44.6976 0 0 1 0-89.3952z" fill="#f4ea2a" p-id="29150"></path></svg>